<svg xmlns="http://www.w3.org/2000/svg" xmlns:xlink="http://www.w3.org/1999/xlink" width="104" height="59" viewBox="0 0 104 59"><defs><path id="7d5da" d="M240.66 236.82a74.03 74.03 0 0 1-2.46 4.47l12 15h-63.56l-.02.02-.02-.02h-20.8l12.58-15.73c0-.1-.05-.22-.05-.32a8.3 8.3 0 0 1 8.29-8.3 8.2 8.2 0 0 1 3.43.77h8.3c-.87-1.53-1.74-3.11-2.56-4.71H182.4L156 261h104z"/><path id="7d5db" d="M220.58 228c-.82 1.7-1.7 3.38-2.58 5h5a12.04 12.04 0 0 1-.67-3.5c0-.52.08-1 .14-1.5h-1.9z"/><path id="7d5dc" d="M201.75 215.33a6.7 6.7 0 0 1 6.75-6.67 6.7 6.7 0 0 1 6.75 6.67 6.7 6.7 0 0 1-6.75 6.67 6.71 6.71 0 0 1-6.75-6.67zm20.25 0c0-7.36-6.05-13.33-13.5-13.33s-13.5 5.97-13.5 13.33S208.5 242 208.5 242s13.5-19.3 13.5-26.67z"/><path id="7d5dd" d="M229 229a4 4 0 1 1 8 0 4 4 0 0 1-8 0zm12 0a8 8 0 0 0-16 0c0 4.42 8 16 8 16s8-11.58 8-16z"/><path id="7d5de" d="M189 240.33a3.09 3.09 0 0 1-3 3.17c-1.65 0-3-1.42-3-3.17a3.08 3.08 0 0 1 3-3.16c1.65 0 3 1.41 3 3.16zm-9 0c0 3.5 6 12.67 6 12.67s6-9.17 6-12.67-2.69-6.33-6-6.33-6 2.83-6 6.33z"/></defs><g><g transform="translate(-156 -202)"><g opacity=".3"><use fill="#fff" xlink:href="#7d5da"/></g><g opacity=".4"><use fill="#fff" xlink:href="#7d5db"/></g><g opacity=".8"><use fill="#fff" xlink:href="#7d5dc"/></g><g opacity=".6"><use fill="#fff" xlink:href="#7d5dd"/></g><g opacity=".6"><use fill="#fff" xlink:href="#7d5de"/></g></g></g></svg>