<svg xmlns="http://www.w3.org/2000/svg" xmlns:xlink="http://www.w3.org/1999/xlink" width="160" height="31" viewBox="0 0 160 31"><defs><path id="krg8a" d="M693.85 1497.05a.61.61 0 0 1-.63.47h-3.75v-4.1h3.62v-1.18h-3.62v-3.48h3.67c.29-.02.55.17.63.46h.39v-1.64h-6.44v.4c.1.03.2.1.28.18.1.13.16.3.16.47v9.01a.74.74 0 0 1-.43.64v.4h6.52v-1.63z"/><path id="krg8b" d="M711.48 1497.05a.61.61 0 0 1-.64.47h-3.75v-4.1h3.62v-1.18h-3.61v-3.48h3.68c.3-.02.56.17.63.46h.39v-1.64h-6.45v.4c.1.03.2.1.28.18.1.13.16.3.16.47v9.01a.73.73 0 0 1-.43.64v.4h6.52v-1.63z"/><path id="krg8c" d="M685.77 1487.98v-.4h-8.49v.4c.28.08.47.36.45.66v8.98c.02.3-.17.57-.45.66v.4h2.2v-.4a.63.63 0 0 1-.44-.66v-8.85H684v8.85c.02.3-.17.58-.45.66v.4h2.2v-.4a.63.63 0 0 1-.44-.66v-8.98a.63.63 0 0 1 .46-.66z"/><path id="krg8d" d="M613.48 1479.32a8.48 8.48 0 1 1-16-5.66 8.48 8.48 0 0 1 16 5.66z"/><path id="krg8f" d="M613.97 1490.84v.87c0 1.67-3.77 3.03-8.47 3.05-4.7.01-8.5-1.33-8.5-2.98v-.88z"/><path id="krg8h" d="M613.97 1491.14c0 1.62-3.79 2.95-8.47 2.96-4.68.02-8.5-1.28-8.5-2.9 0-1.62 3.77-2.95 8.49-2.97 4.7-.02 8.46 1.29 8.48 2.9z"/><path id="krg8j" d="M597 1497.8c0-.22 3.8-.43 8.49-.43 4.68 0 8.48.2 8.48.42v.46c0 .21-3.8.43-8.48.43-4.7 0-8.49-.22-8.49-.43z"/><path id="krg8l" d="M674.67 1493.46h-4.57v-1.31h4.57z"/><path id="krg8m" d="M629.88 1496.9c-.07.3-.33.5-.63.52 0 0-.7.06-1.58.06a2.32 2.32 0 0 1-1.92-.84c-.45-.56-.64-1.38-.64-2.5v-2.02c0-2.22.82-3.33 2.53-3.33.75 0 1.53.08 1.53.08.3.02.55.22.63.5h.41v-1.5s-.42-.08-1.03-.17c-.5-.07-1-.1-1.5-.11a3.69 3.69 0 0 0-2.87 1.13c-.7.77-1.05 1.9-1.05 3.39v2.04c0 1.48.35 2.6 1.05 3.37a3.7 3.7 0 0 0 2.87 1.15c.55.01 1.09-.02 1.63-.08l.98-.16v-1.53z"/><path id="krg8n" d="M740.58 1487.58h-2.55v.39c.32.13.5.33.3.84l-2.01 5.16a.58.58 0 0 1-.43-.29c-.16-.31-2.02-4.75-2.14-5.03a.45.45 0 0 1 0-.41c.06-.13.18-.23.33-.26v-.4h-2.62v.4c.37.05.67.29.79.62l2.32 5.53c.09.25.23.49.42.69.24.2.52.33.82.4 0 0-.28.76-.53 1.35-.17.53-.69.9-1.27.89a.65.65 0 0 1-.64-.45h-.44v1.45s.29.21 1.16.21c.54.03 1.07-.12 1.5-.43.45-.34.79-.79.99-1.3.28-.63 3.1-7.94 3.26-8.3.09-.35.39-.6.76-.65z"/><path id="krg8o" d="M635.48 1477.56l1.43-4.96c.03-.12.14-.2.26-.2.13 0 .24.1.26.22l1.41 4.94zm5.8 3.66l-2.59-8.86a1.61 1.61 0 0 0-1.54-1.1c-.7 0-1.33.45-1.55 1.1 0 0-2.37 8.23-2.59 8.83-.09.37-.38.65-.76.74v.43h2.62v-.4a.6.6 0 0 1-.39-.73c.26-1.02.7-2.5.7-2.5h3.94s.64 2.23.7 2.5a.6.6 0 0 1-.4.73v.4h2.62v-.4a1.01 1.01 0 0 1-.76-.74z"/><path id="krg8p" d="M634.14 1493.88s1.38-4.83 1.43-4.96c.04-.11.15-.2.27-.19.12 0 .23.1.25.21l1.4 4.94zm5.82 3.67l-2.58-8.86a1.61 1.61 0 0 0-1.55-1.11c-.7 0-1.33.45-1.54 1.1 0 0-2.37 8.24-2.59 8.85a1 1 0 0 1-.76.74v.4h2.61v-.4a.6.6 0 0 1-.4-.72c.27-1.02.7-2.5.7-2.5h3.94s.64 2.23.7 2.5a.6.6 0 0 1-.4.73v.4h2.64v-.4a1.01 1.01 0 0 1-.77-.73z"/><path id="krg8q" d="M650.73 1472.32a.63.63 0 0 1 .45-.66v-.4h-2.21v.4c.28.08.46.36.44.66v3.6h-4.96v-3.6a.63.63 0 0 1 .45-.66v-.4h-2.21v.4c.28.08.47.36.45.66v8.98c.02.3-.17.58-.45.66v.4h2.2v-.4a.63.63 0 0 1-.44-.66v-4.19h4.96v4.19c.02.3-.16.58-.44.66v.4h2.2v-.4a.63.63 0 0 1-.44-.66z"/><path id="krg8r" d="M650.06 1488.64a.63.63 0 0 1 .45-.66v-.4h-2.19v.4c.27.09.45.36.43.66v3.6h-4.95v-3.6a.63.63 0 0 1 .45-.66v-.4h-2.21v.4c.28.08.47.36.45.66v8.98c.02.3-.17.57-.45.66v.4h2.2v-.4a.63.63 0 0 1-.44-.66v-4.22h4.95v4.22c.02.3-.16.57-.43.66v.4h2.2v-.4a.63.63 0 0 1-.44-.66z"/><path id="krg8s" d="M661.8 1481.3l-4.09-5.4 3.3-3.58c.25-.34.62-.57 1.04-.66v-.4h-1.8l-4.59 5.16v-4.1a.64.64 0 0 1 .48-.66v-.4h-2.36v.4c.3.08.5.36.48.66v8.98c.02.3-.18.58-.48.66v.4h2.36v-.4a.64.64 0 0 1-.48-.66v-3.15l1.13-1.23 4.06 5.44h2.07v-.4a1.96 1.96 0 0 1-1.13-.66z"/><path id="krg8t" d="M660.5 1497.62l-4.08-5.4 3.3-3.58c.24-.34.62-.57 1.04-.66v-.4h-1.81l-4.59 5.16v-4.1a.64.64 0 0 1 .47-.66v-.4h-2.35v.4c.3.08.5.35.48.66v8.98c.02.3-.18.57-.47.66v.4h2.35v-.4a.64.64 0 0 1-.47-.66v-3.16l1.12-1.22 4.06 5.44h2.07v-.4a1.95 1.95 0 0 1-1.13-.66z"/><path id="krg8u" d="M630.22 1479.18c.05.6-.2 1.17-.68 1.53-.46.32-1.16.49-2.36.49-.4 0-.9 0-1.58-.05v-4.08c.66-.04 1.2-.06 1.58-.06 1.11 0 1.9.16 2.36.49.47.36.73.93.68 1.52zm-3.04-3.32c-.45 0-.98.02-1.58.06v-3.48h3.88c.3-.03.59.17.67.46h.4v-1.64h-6.79v.4c.29.07.48.34.47.64v9c.02.3-.18.58-.47.66v.4h3.5c2.84 0 4.33-1.1 4.33-3.18v-.14c0-2.12-1.47-3.18-4.4-3.18z"/><path id="krg8v" d="M729.43 1495.5c.05.6-.2 1.18-.68 1.54-.46.32-1.15.49-2.35.49-.4 0-.91 0-1.59-.05v-4.08c.67-.03 1.2-.06 1.59-.06 1.1 0 1.9.17 2.35.5.47.35.73.92.68 1.5zm-3.04-3.32c-.45 0-.98.02-1.58.06v-3.5h3.9c.3-.02.58.17.66.46h.4v-1.62h-6.8v.4c.29.07.48.34.47.63v9.01c.02.3-.18.57-.47.66v.4h3.5c2.84 0 4.33-1.1 4.33-3.18v-.14c0-2.12-1.47-3.18-4.4-3.18z"/><path id="krg8w" d="M661.62 1487.58v1.63h.42a.64.64 0 0 1 .64-.46h2.18v8.87c.02.3-.18.57-.47.66v.4h2.3v-.4a.64.64 0 0 1-.47-.66v-8.87h2.16c.3-.02.58.17.67.46h.4v-1.63z"/><path id="krg8x" d="M696.21 1487.58v1.63h.4a.64.64 0 0 1 .67-.46h2.17v8.87c.02.3-.18.57-.47.66v.4h2.3v-.4a.64.64 0 0 1-.47-.66v-8.87h2.16c.3-.02.59.17.67.46h.4v-1.63z"/><path id="krg8y" d="M720.24 1490.98c0 .8-.23 1.36-.7 1.7-.46.33-1.2.49-2.26.49l-1.55-.06v-4.33c.54-.03 1.05-.06 1.55-.06 1.04 0 1.8.16 2.26.5.47.32.7.84.7 1.57zm-2.96-3.4c-.43 0-1 .03-1.68.04l-1.77.06v.4c.3.08.5.35.48.65v8.9c.02.3-.18.57-.48.65v.4h2.38v-.4a.63.63 0 0 1-.48-.65v-3.41c.67.05 1.18.08 1.55.08 2.92 0 4.38-1.1 4.38-3.32v-.2c0-2.13-1.46-3.2-4.38-3.2z"/><path id="krg8z" d="M747.78 1490.98c0 .8-.2 1.36-.63 1.7-.43.33-1.12.49-2.08.49l-1.42-.06v-4.33c.5-.03.96-.06 1.42-.06.96 0 1.65.16 2.07.5.42.32.64.84.64 1.57zm-2.71-3.4c-.4 0-.92.03-1.54.04l-1.62.06v.4c.28.08.46.35.44.65v8.9c.02.3-.17.57-.45.65v.4h2.19v-.4a.63.63 0 0 1-.45-.65v-3.41c.61.05 1.08.08 1.42.08 2.68 0 4.02-1.1 4.02-3.32v-.2c0-2.13-1.33-3.2-4.01-3.2z"/><path id="krg8A" d="M750.38 1487.58v.4c.3.08.5.36.47.66v8.98c.02.3-.17.57-.47.66v.4h2.34v-.4a.64.64 0 0 1-.48-.66v-8.87h3.6c.3-.02.58.17.67.46h.4v-1.63z"/><linearGradient id="krg8e" x1="603.41" x2="616.3" y1="1479.26" y2="1461.95" gradientUnits="userSpaceOnUse"><stop offset="0" stop-color="#da1e33"/><stop offset="1" stop-color="#f47e21"/></linearGradient><linearGradient id="krg8g" x1="608.36" x2="615.67" y1="1492.76" y2="1492.96" gradientUnits="userSpaceOnUse"><stop offset="0" stop-color="#a01c33"/><stop offset="1" stop-color="#c12034"/></linearGradient><linearGradient id="krg8i" x1="604.42" x2="621.95" y1="1491.69" y2="1482.97" gradientUnits="userSpaceOnUse"><stop offset="0" stop-color="#da1e33"/><stop offset=".89" stop-color="#f38522"/><stop offset="1" stop-color="#f69220"/></linearGradient><linearGradient id="krg8k" x1="1126.73" x2="1131.08" y1="8005.32" y2="8003.5" gradientUnits="userSpaceOnUse"><stop offset="0" stop-color="#a01c33"/><stop offset="1" stop-color="#c12034"/></linearGradient></defs><g><g transform="translate(-597 -1468)"><g><use fill="#231f20" xlink:href="#krg8a"/></g><g><use fill="#231f20" xlink:href="#krg8b"/></g><g><use fill="#231f20" xlink:href="#krg8c"/></g><g><use fill="url(#krg8e)" xlink:href="#krg8d"/></g><g><use fill="url(#krg8g)" xlink:href="#krg8f"/></g><g><use fill="url(#krg8i)" xlink:href="#krg8h"/></g><g><use fill="url(#krg8k)" xlink:href="#krg8j"/></g><g><use fill="#231f20" xlink:href="#krg8l"/></g><g><use fill="#231f20" xlink:href="#krg8m"/></g><g><use fill="#231f20" xlink:href="#krg8n"/></g><g><use fill="#231f20" xlink:href="#krg8o"/></g><g><use fill="#231f20" xlink:href="#krg8p"/></g><g><use fill="#231f20" xlink:href="#krg8q"/></g><g><use fill="#231f20" xlink:href="#krg8r"/></g><g><use fill="#231f20" xlink:href="#krg8s"/></g><g><use fill="#231f20" xlink:href="#krg8t"/></g><g><use fill="#231f20" xlink:href="#krg8u"/></g><g><use fill="#231f20" xlink:href="#krg8v"/></g><g><use fill="#231f20" xlink:href="#krg8w"/></g><g><use fill="#231f20" xlink:href="#krg8x"/></g><g><use fill="#231f20" xlink:href="#krg8y"/></g><g><use fill="#231f20" xlink:href="#krg8z"/></g><g><use fill="#231f20" xlink:href="#krg8A"/></g></g></g></svg>