<svg xmlns="http://www.w3.org/2000/svg" xmlns:xlink="http://www.w3.org/1999/xlink" width="20" height="20" viewBox="0 0 20 20"><defs><path id="zv9pa" d="M940.3 670.83l-.5.52c-.28.26-.56.53-.82.84-.43.46-.93.67-1.59.67h-.2a9.15 9.15 0 0 1-3.29-1 18.74 18.74 0 0 1-6.22-4.87 17.13 17.13 0 0 1-3.04-5.06 6.03 6.03 0 0 1-.47-2.64c.04-.5.23-.9.58-1.25l1.44-1.44c.2-.2.42-.3.64-.3a.9.9 0 0 1 .62.3c.27.25.51.5.77.76l.4.41 1.15 1.15c.45.45.45.86 0 1.31l-.36.36c-.36.37-.7.7-1.06 1.03l-.02.03c-.37.36-.3.71-.22.95l.01.04c.3.73.72 1.41 1.36 2.22a15.49 15.49 0 0 0 3.75 3.42c.18.1.35.2.52.28l.42.22c.02.01.03.03.05.03.14.08.28.11.42.11a.9.9 0 0 0 .64-.3l1.44-1.43c.15-.15.37-.32.64-.32.26 0 .48.16.6.3l.02.02 2.32 2.32c.44.43.44.87 0 1.32zm-1.5-4.44c-.41-.43-.9-.66-1.43-.66-.52 0-1.02.23-1.44.65l-1.34 1.33-.32-.17c-.15-.07-.3-.14-.42-.22a14.5 14.5 0 0 1-3.47-3.16 8.55 8.55 0 0 1-1.14-1.8l.98-.96.35-.36c.89-.89.89-2.04 0-2.92l-1.15-1.15-.4-.4c-.25-.27-.51-.54-.79-.79a2 2 0 0 0-1.4-.62c-.52 0-1.02.22-1.44.62h-.01l-1.44 1.46c-.54.54-.85 1.2-.91 1.96a7.4 7.4 0 0 0 .54 3.13c.68 1.84 1.7 3.55 3.23 5.38a19.86 19.86 0 0 0 6.6 5.18 10.3 10.3 0 0 0 3.99 1.1c.97 0 1.79-.34 2.43-1.04l.02-.02c.22-.27.47-.5.74-.77l.54-.54c.42-.43.64-.94.64-1.46s-.22-1.03-.65-1.45z"/><path id="zv9pb" d="M933.8 658.76a5.38 5.38 0 0 1 4.42 4.42c.06.28.3.47.57.47h.1a.57.57 0 0 0 .47-.66 6.5 6.5 0 0 0-5.35-5.35.57.57 0 0 0-.66.46c-.06.31.15.6.46.66z"/><path id="zv9pc" d="M942.97 662.82a10.7 10.7 0 0 0-3-5.8 10.7 10.7 0 0 0-5.8-3.01.57.57 0 1 0-.2 1.12 9.59 9.59 0 0 1 5.2 2.69 9.56 9.56 0 0 1 2.68 5.18c.05.28.29.48.56.48l.1-.01c.3-.05.52-.34.46-.65z"/></defs><g><g transform="translate(-923 -654)"><g><use fill="#fcfeff" xlink:href="#zv9pa"/></g><g opacity=".5"><use fill="#fcfeff" xlink:href="#zv9pb"/></g><g opacity=".2"><use fill="#fcfeff" xlink:href="#zv9pc"/></g></g></g></svg>