<svg xmlns="http://www.w3.org/2000/svg" xmlns:xlink="http://www.w3.org/1999/xlink" width="37" height="50" viewBox="0 0 37 50"><defs><path id="ji5ca" d="M775.48 3689.25c1.16 0 2.85-3.66 3.04-9.24h-6.08c.2 5.58 1.89 9.24 3.04 9.24z"/><path id="ji5cb" d="M778.77 3669.3c1.1 2.15 1.72 5.36 1.83 8.65h5.05a10.22 10.22 0 0 0-6.88-8.65z"/><path id="ji5cc" d="M765.32 3677.95h5.05c.1-3.3.72-6.5 1.83-8.65a10.22 10.22 0 0 0-6.88 8.65z"/><path id="ji5cd" d="M775.48 3668.71c-1.15 0-2.85 3.66-3.04 9.24h6.08c-.19-5.58-1.88-9.24-3.04-9.24z"/><path id="ji5ce" d="M775.48 3691.3c-6.8 0-12.32-5.52-12.32-12.32 0-6.8 5.53-12.32 12.32-12.32 6.8 0 12.32 5.53 12.32 12.32 0 6.8-5.52 12.32-12.32 12.32zm11.3 6.18h-22.6c-.56 0-1.02-.47-1.02-1.04 0-.57.46-1.03 1.03-1.03h22.59c.57 0 1.02.46 1.02 1.03 0 .57-.45 1.04-1.02 1.04zm-4.1 6.16h-14.39c-.56 0-1.02-.47-1.02-1.04 0-.57.46-1.03 1.02-1.03h14.38a1.03 1.03 0 1 1 0 2.06zm7.18-43.14H761.1a4.11 4.11 0 0 0-4.11 4.1v41.08c0 2.27 1.84 4.1 4.1 4.1h28.76c2.26 0 4.1-1.83 4.1-4.1v-41.07c0-2.27-1.84-4.11-4.1-4.11z"/><path id="ji5cf" d="M778.77 3688.66a10.22 10.22 0 0 0 6.88-8.65h-5.05c-.1 3.3-.73 6.5-1.83 8.65z"/><path id="ji5cg" d="M765.32 3680.01a10.22 10.22 0 0 0 6.88 8.65c-1.1-2.15-1.73-5.35-1.83-8.65z"/></defs><g><g clip-path="url(#clip-4EED8FE2-77DB-4472-A5A6-156C7309A685)" transform="translate(-757 -3660)"><g><use fill="#fff" xlink:href="#ji5ca"/></g><g><use fill="#fff" xlink:href="#ji5cb"/></g><g><use fill="#fff" xlink:href="#ji5cc"/></g><g><use fill="#fff" xlink:href="#ji5cd"/></g><g><use fill="#fff" xlink:href="#ji5ce"/></g><g><use fill="#fff" xlink:href="#ji5cf"/></g><g><use fill="#fff" xlink:href="#ji5cg"/></g></g></g></svg>