<svg xmlns="http://www.w3.org/2000/svg" xmlns:xlink="http://www.w3.org/1999/xlink" width="47" height="53" viewBox="0 0 47 53"><defs><path id="793oa" d="M788 3353.03l-12.52 3.97-12.48-3.92.94-4.07c3.4.4 7.32.64 11.5.64 4.23 0 8.2-.24 11.63-.65zm-9 4.76l9.5-2.79 1.5 6zm-18 3.21l1.5-6 9.5 2.77zm38-16.45c0-1.23-2.25-2.36-5.96-3.22l-3.8-20.31c0-2.22-1.8-4.02-4-4.02h-19.46c-2.22 0-4 1.8-4 4.02l-3.8 20.31c-3.72.86-5.98 1.99-5.98 3.22 0 1.63 3.88 3.06 9.82 3.94l-4.76 20.14a1.11 1.11 0 0 0 2.16.51l1.33-5.61 14.99-4.64 15.04 4.62 1.33 5.63a1.11 1.11 0 1 0 2.16-.51l-4.77-20.16c5.88-.88 9.7-2.3 9.7-3.92z"/></defs><g><g transform="translate(-752 -3317)"><use fill="#fff" xlink:href="#793oa"/></g></g></svg>