<svg xmlns="http://www.w3.org/2000/svg" xmlns:xlink="http://www.w3.org/1999/xlink" width="46" height="46" viewBox="0 0 46 46"><defs><path id="waina" d="M797.48 3067.74a22.6 22.6 0 0 1-6.66 16.08 22.6 22.6 0 0 1-16.08 6.66 22.6 22.6 0 0 1-16.08-6.66 22.6 22.6 0 0 1-6.66-16.08 22.6 22.6 0 0 1 6.66-16.08c4.3-4.3 10-6.66 16.08-6.66a22.6 22.6 0 0 1 16.08 6.66c4.3 4.3 6.66 10 6.66 16.08zm-36.73-1.13h-3v2.27h3zm12.86-12.86h2.27v-3h-2.27zm0 15.12h10.6v-2.26h-8.34v-8.33h-2.26zm-7.94 9.55l-1.6-1.6-2.14 2.14 1.6 1.6zm0-21.35l-2.14-2.14-1.6 1.6 2.14 2.14zm10.21 24.65h-2.27v3h2.27zm11.67-2.76l-2.13-2.13-1.6 1.6 2.14 2.12zm0-22.43l-1.6-1.6-2.12 2.14 1.6 1.6zm4.18 12.35v-2.27h-3.01v2.27z"/></defs><g><g clip-path="url(#clip-BBDDFB1F-80D5-45F1-945C-D86674F0FBD6)" transform="translate(-752 -3045)"><use fill="#fff" xlink:href="#waina"/></g></g></svg>