<svg xmlns="http://www.w3.org/2000/svg" xmlns:xlink="http://www.w3.org/1999/xlink" width="18" height="25" viewBox="0 0 18 25"><defs><path id="chz1a" d="M63 122v-8h7v8zm3.5-2c.83 0 1.5-.9 1.5-2s-.67-2-1.5-2-1.5.9-1.5 2 .67 2 1.5 2z"/><path id="chz1b" d="M57 131v-8h8v8zm4.25-2c.83 0 1.5-.9 1.5-2s-.67-2-1.5-2-1.5.9-1.5 2 .67 2 1.5 2z"/><path id="chz1c" d="M64 139v-8h8v8zm4-2c.83 0 1.5-.9 1.5-2s-.67-2-1.5-2-1.5.9-1.5 2 .67 2 1.5 2z"/><path id="chz1d" d="M56 119a1 1 0 0 1 1-1h16a1 1 0 0 1 0 2H57a1 1 0 0 1-1-1z"/><path id="chz1e" d="M65 118c0-1.1.67-2 1.5-2s1.5.9 1.5 2-.67 2-1.5 2-1.5-.9-1.5-2z"/><path id="chz1g" d="M56 127a1 1 0 0 1 1-1h16a1 1 0 0 1 0 2H57a1 1 0 0 1-1-1z"/><path id="chz1h" d="M59.75 127c0-1.1.67-2 1.5-2s1.5.9 1.5 2-.67 2-1.5 2-1.5-.9-1.5-2z"/><path id="chz1j" d="M56 135a1 1 0 0 1 1-1h16a1 1 0 0 1 0 2H57a1 1 0 0 1-1-1z"/><path id="chz1k" d="M66.5 135c0-1.1.67-2 1.5-2s1.5.9 1.5 2-.67 2-1.5 2-1.5-.9-1.5-2z"/><clipPath id="chz1f"><use fill="#fff" xlink:href="#chz1a"/></clipPath><clipPath id="chz1i"><use fill="#fff" xlink:href="#chz1b"/></clipPath><clipPath id="chz1l"><use fill="#fff" xlink:href="#chz1c"/></clipPath></defs><g><g transform="translate(-56 -114)"><g><use fill="#1a69ad" xlink:href="#chz1d"/></g><g><use fill="#1a69ad" xlink:href="#chz1e"/><use fill="#fff" fill-opacity="0" stroke="#fff" stroke-miterlimit="50" stroke-width="4" clip-path="url(&quot;#chz1f&quot;)" xlink:href="#chz1e"/></g><g><use fill="#1a69ad" xlink:href="#chz1g"/></g><g><use fill="#1a69ad" xlink:href="#chz1h"/><use fill="#fff" fill-opacity="0" stroke="#fff" stroke-miterlimit="50" stroke-width="4" clip-path="url(&quot;#chz1i&quot;)" xlink:href="#chz1h"/></g><g><use fill="#1a69ad" xlink:href="#chz1j"/></g><g><use fill="#1a69ad" xlink:href="#chz1k"/><use fill="#fff" fill-opacity="0" stroke="#fff" stroke-miterlimit="50" stroke-width="4" clip-path="url(&quot;#chz1l&quot;)" xlink:href="#chz1k"/></g></g></g></svg>