<svg xmlns="http://www.w3.org/2000/svg" width="37" height="44" viewBox="0 0 37 44">
  <path fill="#ED4543" d="M18.4997329,0 C8.28253744,0 0,8.19381286 0,18.3015592 C0,25.3658289 4.04830255,31.4913673 9.97302566,34.5422439 C11.3162265,35.370505 16.9449539,39.0667593 18.2357944,43.5748892 C18.4051638,44.1674104 18.6001791,44.1319966 18.7796999,43.5220327 C20.0983235,39.0376882 25.6885821,35.3673336 27.0269743,34.5422439 C32.9516974,31.4918959 37,25.3663574 37,18.3015592 C36.9994657,8.19381286 28.7169283,0 18.4997329,0 Z M18.4997329,25.1068321 C14.7009429,25.1068321 11.6207708,22.0596555 11.6207708,18.3015592 C11.6207708,14.5434628 14.7009429,11.4962863 18.4997329,11.4962863 C22.2985228,11.4962863 25.3786949,14.5434628 25.3786949,18.3015592 C25.3786949,22.0596555 22.2985228,25.1068321 18.4997329,25.1068321 Z"/>
</svg>
