<svg xmlns="http://www.w3.org/2000/svg" xmlns:xlink="http://www.w3.org/1999/xlink" width="46" height="46" viewBox="0 0 46 46"><defs><path id="90wfa" d="M942 3939a23 23 0 1 1 46 0 23 23 0 0 1-46 0z"/><path id="90wfb" d="M960.67 3952.76l-1.92-3.68a1.6 1.6 0 0 0-1.2-.84l-3.92-.76.55-4.08a1.78 1.78 0 0 0-.42-1.47l-2.65-3.02 2.7-2.92c.37-.4.54-.94.46-1.47-.14-1.17-.43-4.13-.43-4.13l3.88-.7c.47-.1.94-.4 1.2-.9l1.92-3.59 3.5 1.78c.46.26 1.06.26 1.53 0l3.54-1.7 1.91 3.7c.26.44.69.8 1.16.84l3.88.8-.56 4.08c-.08.53.09 1.1.43 1.46l2.68 3.02-2.72 2.93c-.39.4-.56.93-.47 1.47l.47 4.08-3.84.66c-.47.1-.94.4-1.2.9l-1.91 3.59-3.5-1.78a1.57 1.57 0 0 0-1.54 0z"/><path id="90wfc" d="M959.08 3938.93c.17-.2.29-.12.8.04 0 0 3.3 1.17 3.68 1.17.38 0 .59-.23.84-.46l5.6-5.9c.63-.7 1.25-.94 1.65-.68.19.13.3.31.34.52a.98.98 0 0 1-.25.77l-7.65 10.28a.84.84 0 0 1-.64.33c-.27 0-.52-.17-.68-.46l-3.6-4.94c-.15-.24-.25-.47-.09-.67z"/></defs><g><g transform="translate(-942 -3916)"><g><use fill="#1a69ad" xlink:href="#90wfa"/></g><g><use fill="#fff" fill-opacity="0" stroke="#fff" stroke-miterlimit="50" stroke-width="3" xlink:href="#90wfb"/></g><g><use fill="#fff" xlink:href="#90wfc"/></g></g></g></svg>