<svg xmlns="http://www.w3.org/2000/svg" xmlns:xlink="http://www.w3.org/1999/xlink" width="160" height="25" viewBox="0 0 160 25"><defs><path id="gin9b" d="M1082.24 1478.17h9.2v2.03h-.68a1.06 1.06 0 0 0-1.08-1.08h-1.63v9.33h-2.31v-9.33h-1.76c-.67 0-.95.8-1.08 1.08h-.66"/><path id="gin9c" d="M1101.3 1478.17h1.9v10.28h-2.3v-7.17l-5.4 7.17h-1.76v-8.25c0-1.35-.95-1.62-.95-1.62v-.41h3.11v7.44"/><path id="gin9d" d="M1053.56 1488.45h-2.97l-2.03-3.8s-.68-1.07-1.35-1.07h-.68v4.87h-2.16v-8.25a1.24 1.24 0 0 0-1.22-1.36v-.67h3.38v4.33h.96s.67 0 1.08-.96c1.9-2.97 1.62-3.38 2.57-3.38h2.16v.68c-1.49 0-2.03 3.1-3.5 4.19.68.27 1.08.95 2.7 3.92.11.5.57.85 1.09.81"/><path id="gin9e" d="M1107.92 1482.23h5.41v-.41c0-1.5-1.21-2.7-2.7-2.7-1.63 0-2.7 1.08-2.7 2.7zm7.17 4.04a5.05 5.05 0 0 1-4.45 2.44c-2.98 0-5.41-2.03-5.41-5v-.67c0-2.84 2.17-5.14 5.4-5.14 2.85 0 5.15 2.57 5.15 5.4h-7.86v1.77a2.74 2.74 0 0 0 2.84 2.7c1.63 0 2.57-.67 3.39-1.49z"/><path id="gin9f" d="M1061.27 1477.89c-1.22 0-2.57.68-2.98 1.35v-1.08h-3.38v.68s1.08 0 1.08 1.35v12.99h2.3v-5.82c.71.91 1.82 1.42 2.98 1.35 2.84 0 4.75-2.3 4.75-5.14v-.67c0-2.98-1.91-5-4.74-5m2.15 7.03c0 1.35-.81 2.7-2.44 2.7h-.27c-1.08 0-2.16-.95-2.43-1.9v-4.46c0-1.08 1.08-2.16 2.43-2.16h.55s2.02 0 2.16 2.7"/><path id="gin9g" d="M1026.91 1477.9a5.28 5.28 0 0 0-5.54 5.14v.95c0 2.3 2.16 4.74 5.54 4.74 2.98 0 5.68-2.3 5.68-5v-.69c0-2.57-2.3-5.14-5.68-5.14m2.98 7.03c0 1.48-1.36 2.83-2.98 2.83a2.77 2.77 0 0 1-2.83-2.83v-3.38c0-1.35 1.35-2.43 2.83-2.43 1.62 0 2.98 1.08 2.98 2.7"/><path id="gin9h" d="M1080.6 1478.17h-3.1v.68s1.08 0 1.08 1.35v8.25h2.03"/><path id="gin9i" d="M1070.87 1482.23v-4.06h-3.11v.68s.95 0 .95 1.35v8.25h5.14c2.03 0 3.38-1.08 3.38-2.84v-.54c0-1.76-1.35-2.84-3.65-2.84zm0 5.4v-4.59h2.03c1.22 0 1.9.95 1.9 2.03v.54c0 1.08-.96 2.03-1.9 2.03z"/><path id="gin9j" d="M1032.87 1478.17h9.2v2.03h-.68s-.27-1.08-1.08-1.08h-1.63v9.33h-2.3v-9.33h-1.75a1.04 1.04 0 0 0-1.09 1.08h-.67"/><path id="gin9a" d="M990 1495.34V1471h159.04v24.34z"/><path id="gin9l" d="M1002.17 1471.14a12.17 12.17 0 0 1 0 24.35A12.3 12.3 0 0 1 990 1483.3a12.3 12.3 0 0 1 12.17-12.17m-2.43 18.26c-1.35-.68-2.57-2.3-2.57-3.79v-4.33c0-1.75 1.22-3.1 2.57-3.78.23-.16.38-.4.41-.68.27-.41 0-.68 0-.95-.28-.14-.41-.41-.95-.41a.87.87 0 0 0-.68.28l-.4.14a7.8 7.8 0 0 0-4.06 6.76v1.35a8.08 8.08 0 0 0 4.05 7.03l.41.14h.68c.54 0 .68 0 .95-.41 0-.27.27-.4 0-.68 0-.4-.27-.67-.4-.67m10.82-6.76a7.8 7.8 0 0 0-4.08-6.77l-.54-.14c-.14-.27-.41-.27-.68-.27-.32.02-.6.17-.81.4-.27.29-.27.56 0 .96.03.28.17.52.4.68a4.24 4.24 0 0 1 2.44 3.78v4.33a4.57 4.57 0 0 1-2.44 3.79c-.27 0-.4.27-.4.67-.27.28-.27.4 0 .68.13.4.4.4.8.4h.7l.54-.13a8.08 8.08 0 0 0 4.07-7.03"/><path id="gin9m" d="M1131.58 1483.56h-.67v1.75h.67c.67 0 1.07-.27 1.07-.95 0-.68-.4-.8-1.07-.8m-.26 2.45h-1.08v-5.15h2.7v.67h-2.03v1.36h.67c1.08 0 1.76.67 1.76 1.48 0 .96-.95 1.63-2.03 1.63"/><path id="gin9n" d="M1135.65 1483.7h1.5l-.83-2.15zm.4-2.84h.68l2.03 4.87-.67.27-.68-1.63h-2.03l-.68 1.63h-.67z"/><path id="gin9o" d="M1143.08 1486v-2.43h-2.57v2.44h-.67v-5.14h.67v2.03h2.57v-2.03h.82v5.14"/><path id="gin9q" d="M1148.5 1486l-2.58-2.7v2.7h-.67v-5.13h.67v2.16l2.3-2.16h.95l-2.3 2.43 2.3 2.44"/><path id="gin9r" d="M1122.8 1495.47v-24.34h.5v24.34z"/><clipPath id="gin9k"><use xlink:href="#gin9a"/></clipPath><clipPath id="gin9p"><use xlink:href="#gin9a"/></clipPath></defs><g><g transform="translate(-990 -1471)"><g><use fill="#555759" xlink:href="#gin9b"/></g><g><use fill="#555759" xlink:href="#gin9c"/></g><g><use fill="#555759" xlink:href="#gin9d"/></g><g><use fill="#555759" xlink:href="#gin9e"/></g><g><use fill="#555759" xlink:href="#gin9f"/></g><g><use fill="#555759" xlink:href="#gin9g"/></g><g><use fill="#555759" xlink:href="#gin9h"/></g><g><use fill="#555759" xlink:href="#gin9i"/></g><g><use fill="#555759" xlink:href="#gin9j"/></g><g><g/><g clip-path="url(#gin9k)"><use fill="#00b3e3" xlink:href="#gin9l"/></g></g><g><use fill="#555759" xlink:href="#gin9m"/></g><g><use fill="#555759" xlink:href="#gin9n"/></g><g><use fill="#555759" xlink:href="#gin9o"/></g><g><g/><g clip-path="url(#gin9p)"><g><use fill="#555759" xlink:href="#gin9q"/></g><g><use fill="#555759" xlink:href="#gin9r"/></g></g></g></g></g></svg>