<svg xmlns="http://www.w3.org/2000/svg" xmlns:xlink="http://www.w3.org/1999/xlink" width="46" height="46" viewBox="0 0 46 46"><defs><path id="y70oa" d="M562 4210a23 23 0 1 1 46 0 23 23 0 0 1-46 0z"/><path id="y70ob" d="M583 4207v7h3v-7z"/><path id="y70oc" d="M579 4211v3h3v-3z"/><path id="y70od" d="M587 4204v10h3v-10z"/><path id="y70oe" d="M585.11 4218.8a9.7 9.7 0 0 1 0-19.38 9.7 9.7 0 0 1 0 19.39zm13.53 2.13l-4.16-4.16a12.12 12.12 0 0 0-9.37-19.77c-6.68 0-12.11 5.43-12.11 12.1a12.12 12.12 0 0 0 19.77 9.38l4.16 4.17a1.2 1.2 0 0 0 1.71 0c.48-.48.48-1.24 0-1.72z"/></defs><g><g transform="translate(-562 -4187)"><use fill="#1a69ad" xlink:href="#y70oa"/></g><g transform="translate(-562 -4187)"><g><use fill="#fff" xlink:href="#y70ob"/></g><g><use fill="#fff" xlink:href="#y70oc"/></g><g><use fill="#fff" xlink:href="#y70od"/></g><g><use fill="#fff" xlink:href="#y70oe"/></g></g></g></svg>