<svg xmlns="http://www.w3.org/2000/svg" xmlns:xlink="http://www.w3.org/1999/xlink" width="160" height="41" viewBox="0 0 160 41"><defs><path id="w2vfa" d="M834.78 1481.7c.67.72 1.5 1.29 2.44 1.64 1.11.42 2.3.62 3.5.6.62-.01 1.24-.06 1.85-.14a5.16 5.16 0 0 0 1.52-.39c.46-.13.86-.32 1.25-.46.32-.2.66-.32.92-.46l-.45-1-.2-.03c-.52.5-.89.53-1.46.76a8.7 8.7 0 0 1-2.44.26c-.85.05-1.7-.16-2.43-.59a4.76 4.76 0 0 1-1.52-1.52 7.9 7.9 0 0 1-.73-2.3c-.14-.96-.2-1.93-.2-2.9 0-.8.07-1.65.14-2.51.04-.78.25-1.54.59-2.23.3-.65.76-1.21 1.32-1.65.7-.46 1.53-.7 2.37-.67.85-.02 1.68.24 2.38.72.66.46 1.05 1.26 1.25 2.23h1.06v-3.22a6.9 6.9 0 0 0-2.3-.66c-.47-.07-.87-.07-1.33-.13-.4 0-.8-.07-1.12-.07-1.26-.03-2.51.17-3.7.6-.95.37-1.8.96-2.5 1.71a7.07 7.07 0 0 0-1.45 2.7c-.34 1.19-.5 2.4-.47 3.63a11 11 0 0 0 .47 3.43c.15.98.58 1.9 1.24 2.64z"/><path id="w2vfb" d="M895.29 1482.05a.6.6 0 0 1-.2-.46c0-.2-.07-.47-.07-.8v-6.86h1.39c1.25 0 2.18.32 2.7 1 .53.66.8 1.7.8 3.16.03.78-.06 1.56-.27 2.3-.13.5-.38.95-.72 1.33-.3.24-.64.44-1 .59-.38.08-.78.12-1.18.13-.4-.06-.73-.06-.92-.13a1.3 1.3 0 0 1-.52-.26zm3.83 1.31c.74-.06 1.45-.29 2.1-.66.65-.39 1.16-.97 1.47-1.67.38-.73.57-1.73.57-2.99.02-.8-.1-1.59-.38-2.33a3.66 3.66 0 0 0-1.21-1.6 5.99 5.99 0 0 0-2.17-.86c-1.07-.2-2.16-.3-3.25-.27h-1.22v-3.87c0-.4.07-.66.27-.79.19-.13.52-.13 1.04-.13h1.97c.5-.01 1 .01 1.5.07.33.01.65.13.92.32.26.2.46.48.58.8.2.44.35.9.46 1.37h.92v-3.51h-12.12v.34c.1.04.21.06.32.07.14.04.27.1.38.2.1.12.16.26.2.4 0 .2.06.4.06.67v12.71c.01.23 0 .45-.07.67a.41.41 0 0 1-.19.4.55.55 0 0 1-.38.2c-.1.04-.21.07-.32.07v.53h5.93c.87.02 1.75-.02 2.62-.14z"/><path id="w2vfc" d="M881 1468.86a.83.83 0 0 1 .07-.4c0-.1.05-.2.13-.26.11-.1.25-.14.4-.13.2 0 .4-.07.73-.07.4.01.8.06 1.18.13a3 3 0 0 1 1 .6c.28.34.5.71.64 1.12.14.56.21 1.14.2 1.71 0 1.39-.2 2.44-.6 3.17-.39.72-1.12 1.12-2.1 1.12H881zm.96 14.18a1.3 1.3 0 0 0-.32-.06c-.14-.04-.27-.11-.38-.2a1.1 1.1 0 0 1-.2-.4c0-.2-.05-.4-.05-.66v-4.6h1.64c.82 0 1.63-.06 2.44-.2a6.25 6.25 0 0 0 2.04-.72c.61-.38 1.1-.93 1.39-1.6.37-.83.55-1.75.52-2.67.02-.86-.13-1.71-.46-2.5a4.04 4.04 0 0 0-1.32-1.46 4.37 4.37 0 0 0-1.9-.59c-.73-.06-1.46-.13-2.24-.13h-6.26v.53c.1.04.21.06.32.07.14.04.27.1.38.2.1.11.16.25.2.4 0 .2.06.4.06.66v12.54c.01.23 0 .45-.07.66a.4.4 0 0 1-.19.4.54.54 0 0 1-.38.2c-.1.04-.21.06-.32.06v.53h5.1v-.46z"/><path id="w2vfd" d="M874.63 1479.67h-1.06c-.1.53-.23 1.06-.4 1.57-.07.35-.26.66-.53.89-.25.23-.58.35-.92.34-.55.06-1.1.08-1.65.07-.5.02-1.02 0-1.52-.07-.3-.03-.6-.12-.86-.28a.7.7 0 0 1-.32-.54 4 4 0 0 1-.07-.96v-5.16h2.85c.27 0 .53.07.8.07.27.01.53.06.8.14.23.05.45.15.66.28v-2.26c-.2.13-.43.23-.67.28-.52.12-1.06.19-1.6.21h-2.85v-5.2c0-.24.04-.49.13-.72.14-.13.32-.13.66-.13h1.76c.5-.01 1.01 0 1.51.07a1.69 1.69 0 0 1 1.5 1.1c.2.45.35.9.46 1.38h.68v-3.51h-11.16v.54c.1.04.21.06.32.07.14.03.27.1.38.2.1.11.16.25.2.39 0 .2.06.4.06.66v12.55c.01.22 0 .44-.07.66a.4.4 0 0 1-.19.4.54.54 0 0 1-.38.2c-.1.04-.21.06-.32.06v.53h11.8z"/><path id="w2vfe" d="M852.57 1482.05a.6.6 0 0 1-.2-.46c0-.2-.06-.47-.06-.8v-6.86h1.38c1.25 0 2.17.32 2.7 1 .53.66.8 1.7.8 3.16.03.78-.06 1.56-.27 2.3-.13.5-.38.95-.72 1.33-.3.24-.64.44-1 .59-.38.08-.78.12-1.18.13-.4-.06-.66-.06-.92-.13a1.3 1.3 0 0 1-.53-.26zm3.75 1.31c.74-.06 1.46-.29 2.1-.66.66-.4 1.19-.98 1.54-1.67.38-.73.57-1.73.57-2.99.02-.8-.1-1.59-.38-2.33a3.66 3.66 0 0 0-1.21-1.6 5.99 5.99 0 0 0-2.17-.86c-1.07-.2-2.16-.3-3.25-.27h-1.22v-3.87c0-.4.07-.66.27-.79.19-.13.52-.13 1.04-.13h1.97c.5-.01 1 .01 1.5.07.33.01.65.13.92.32.26.2.46.48.58.8.2.44.35.9.46 1.37h.92v-3.51h-12.12v.34c.1.04.21.06.32.07.14.04.27.1.38.2.1.12.16.26.2.4 0 .2.06.4.06.67v12.65c.01.22-.01.45-.07.66a.41.41 0 0 1-.19.4.54.54 0 0 1-.38.2c-.1.05-.21.07-.32.07v.6h5.93c.85.02 1.7-.02 2.55-.14z"/><path id="w2vff" d="M833.18 1489.56v-1.59h119.57v1.59z"/><path id="w2vfg" d="M942.1 1475.82l.03.28c.88 1.05 1.27 1.75 1.84 2.44.26.4.6.8.86 1.2.26.4.55.8.85 1.19a14.77 14.77 0 0 1 1.53 2.57l5.55.07c-.6-.6-1.13-1.19-1.72-1.79-.53-.59-1-1.12-1.32-1.45-.53-.6-1-1.12-1.39-1.6l-1.26-1.45a23.25 23.25 0 0 1-2.18-3.05l.26-.32c.4-.53.87-1.05 1.4-1.71a23.2 23.2 0 0 1 1.65-1.92 19.2 19.2 0 0 1 3.24-3.04h-3.83c-.17.4-.38.8-.6 1.18-.28.53-.59 1.03-.93 1.52-.32.53-.72 1.13-1.06 1.72-.4.6-.72 1.13-1.12 1.65-.4.53-.73 1.06-1.06 1.46-.33.4-.55.74-.74 1.05z"/><path id="w2vfh" d="M942.55 1483.04c-.1-.04-.2-.06-.32-.07a.98.98 0 0 1-.38-.2 1.1 1.1 0 0 1-.2-.39c0-.2-.06-.4-.06-.66v-12.56c-.01-.23 0-.45.07-.66a.4.4 0 0 1 .19-.4c.11-.1.24-.16.38-.2.1-.04.21-.06.32-.06v-.6h-5.42v.54c.1.04.21.06.32.07.14.04.27.1.38.2.1.11.16.25.2.4 0 .2.06.4.06.66v12.54c.01.22 0 .45-.07.66a.4.4 0 0 1-.19.4.54.54 0 0 1-.38.2c-.1.04-.21.06-.32.06v.53h5.42v-.46z"/><path id="w2vfi" d="M910.86 1469.89l2.17 6.6h-4.47zm-3.96 11.53c.2-.96.62-2.3 1.17-3.98h5.4l.74 2.16c.31.79.56 1.6.76 2.42.17.48.29.98.34 1.48h3.9c-.2-.32-.39-.79-.65-1.31a18.5 18.5 0 0 1-.93-2.3l-3.74-10.67a5.59 5.59 0 0 1-.32-1.19c-.07-.32-.07-.6-.13-.79h-4.7v.18c.12.03.23.05.35.06.15.04.29.1.41.2.1.13.17.27.2.42v.32c.02.37-.05.74-.2 1.08l-2.73 6.6c-.48 1.2-.96 2.28-1.3 3.1-.35.8-.69 1.54-.89 2.08-.27.54-.48 1-.68 1.35-.2.33-.35.6-.48.87h3.07c.07-.47.2-1.14.41-2.08z"/><path id="w2vfj" d="M925.65 1482.86h-.32a1.3 1.3 0 0 0-.32-.06.68.68 0 0 1-.57-.57c0-.2-.06-.39-.06-.64v-6.06h6.37v6.14c.02.22 0 .43-.06.64a.4.4 0 0 1-.2.4.54.54 0 0 1-.38.19c-.1.04-.2.06-.31.06v.54h5.42v-.53a1.3 1.3 0 0 0-.32-.06c-.14-.04-.27-.1-.38-.2a1.07 1.07 0 0 1-.2-.4c0-.2-.06-.4-.06-.66v-12.62c-.02-.23 0-.45.06-.66a.4.4 0 0 1 .2-.4c.1-.1.24-.15.38-.19.1-.04.2-.06.32-.06v-.48h-5.1v.54c.1.04.2.06.31.07.14.03.27.1.39.2.09.11.15.24.19.39 0 .2.06.4.06.65v5.16h-6.38v-5.17c-.01-.22 0-.45.07-.66a.4.4 0 0 1 .19-.4c.11-.08.24-.15.38-.19.1-.04.21-.06.32-.06v-.53h-5.42v.54c.1.04.21.06.32.07.14.04.27.1.38.2.1.11.16.25.2.4 0 .19.06.39.06.65v12.59c.01.22-.01.44-.07.65a.4.4 0 0 1-.19.4.55.55 0 0 1-.38.2c-.1.04-.21.06-.32.06v.5h5.42v-.64z"/><path id="w2vfk" d="M822.15 1468.87l-1-1.38-18.26 10.5-8.84-5.1c-.2.56-.34 1.13-.41 1.72l9.31 5.35z"/><path id="w2vfl" d="M802.89 1481.93l-9.5-5.47a15.7 15.7 0 1 0 31.33 1.06c.02-2.49-.57-4.93-1.71-7.13z"/><path id="w2vfm" d="M819.9 1466.17c-.46-.47-.92-.8-1.4-1.19l-15.62 9.04-7.52-4.3c-.26.47-.53 1-.79 1.53l8.25 4.74z"/><path id="w2vfn" d="M816.94 1463.92c-.6-.34-1.21-.65-1.85-.92l-12.2 7.06-5.48-3.1c-.4.4-.72.85-1.12 1.32l6.53 3.76z"/><path id="w2vfo" d="M901.93 1495.62h1.27c.77 0 1.15.32 1.15.95 0 .77-.57 1.27-1.66 1.27h-1.27zm-.78 2.87h1.2c1 0 1.55.6 1.55 1.2 0 .81-.61 1.35-1.62 1.35h-1.54zm-1.01 2.93l.01-.06h-.01zm.01-.06h2.16c1.58 0 2.37-.66 2.37-1.84 0-.66-.4-1.12-1.05-1.38.98-.33 1.5-.8 1.5-1.65 0-.92-.52-1.51-1.7-1.51h-2.04z"/><path id="w2vfp" d="M909.02 1500.4c-.4.72-.86 1.25-1.78 1.25-1.06 0-1.78-.86-1.78-2.05 0-1.45.92-2.7 2.17-2.7.93 0 1.4.53 1.65 1.32l-.59.13c-.2-.6-.53-.92-1.06-.92-.85 0-1.59.92-1.59 2.23 0 .92.46 1.39 1.25 1.39.73 0 1-.4 1.26-.86z"/><path id="w2vfq" d="M913.21 1498.73c.07-.13 0-.2 0-.26a.99.99 0 0 0-.29-.76 1 1 0 0 0-.76-.29c-.86 0-1.26.52-1.52 1.37h2.57zm-2.87.71v.32c0 .92.47 1.45 1.19 1.45.66 0 1.05-.46 1.45-1.05l.53.26c-.53.8-1.06 1.32-2.04 1.32-1.06 0-1.72-.8-1.72-1.98 0-1.6.92-2.77 2.23-2.77 1.06 0 1.65.66 1.65 1.85 0 .2-.06.4-.06.59z"/><path id="w2vfr" d="M915.22 1497.21h2.57l-.06.32h-1.96l-.82 4.14h-.57z"/><path id="w2vfs" d="M919.99 1501.05l-.34-3.51h-.13l-1.62 3.5zm-2.78 0l1.97-4.15h.96l.54 4.15h.41l-.26 1.59h-.46l.06-.96h-3.1l-.26.96h-.46l.26-1.6z"/><path id="w2vft" d="M924.72 1499.45h-.47c-1.36 0-2.02.39-1.9 1.17.07.3.3.53.6.6.54.08.98-.21 1.5-.58zm.17-.64c0-.2.07-.4.07-.55 0-.54-.41-.88-1.02-.88-.41 0-.8.2-1.03.54l-.41-.4c.42-.42.98-.67 1.57-.69.96 0 1.57.62 1.57 1.36 0 .14-.07.42-.07.76l-.34 1.57c-.1.38-.14.77-.13 1.16h-.62a1.36 1.36 0 0 1-.07-.55c-.49.41-.98.73-1.7.58-.5-.09-.88-.47-.98-.95-.27-1.18.63-1.97 2.48-1.97z"/><path id="w2vfu" d="M929.8 1500.47c.23.43.7.68 1.18.67.85 0 1.65-1 1.65-2.39 0-.86-.4-1.32-1.06-1.32-.53 0-1.02.3-1.25.8zm.53-2.98c.33-.4.8-.64 1.31-.66 1 0 1.52.66 1.52 1.91 0 1.65-1 2.83-2.17 2.83-.5 0-.98-.21-1.32-.59l-.46 2.3h-.59l1.25-6.38h.53z"/><path id="w2vfv" d="M937.07 1497.53h-1.33c-.6 0-.9.36-.9.66 0 .42.24.6.72.6h1.21zm-1.33 1.91l-1.53 2.23h-.55l1.49-2.07c-.53-.14-.9-.61-.9-1.16 0-.58.51-1.23 1.54-1.23h2.14l-.9 4.46h-.53l.43-2.23z"/><path id="w2vfw" d="M941.23 1501.05l-.34-3.51h-.13l-1.62 3.5zm-2.71 0l1.97-4.15h.95l.55 4.15h.4l-.26 1.59h-.46l.07-.96h-3.1l-.27.96h-.46l.26-1.6z"/><path id="w2vfx" d="M943.51 1499.8c0 .86.47 1.32 1.06 1.32.79 0 1.6-.99 1.6-2.3 0-.86-.47-1.4-1.06-1.4-.8.02-1.61 1-1.61 2.39zm-.59-.13c0-1.6.99-2.77 2.17-2.77 1 0 1.6.8 1.6 1.98 0 1.51-.99 2.77-2.18 2.77-.93 0-1.59-.7-1.59-1.98z"/><path id="w2vfy" d="M951.92 1497.73l-1.93 3.94h-.59l-.58-3.94-.78 3.94h-.58l.9-4.46h.97l.51 3.88 1.88-3.88h.96l-.9 4.46h-.6z"/></defs><g><g transform="translate(-793 -1463)"><g><use fill="#1a9f29" xlink:href="#w2vfa"/></g><g><use fill="#1a9f29" xlink:href="#w2vfb"/></g><g><use fill="#1a9f29" xlink:href="#w2vfc"/></g><g><use fill="#1a9f29" xlink:href="#w2vfd"/></g><g><use fill="#1a9f29" xlink:href="#w2vfe"/></g><g><use fill="#1a9f29" xlink:href="#w2vff"/></g><g><use fill="#1a9f29" xlink:href="#w2vfg"/></g><g><use fill="#1a9f29" xlink:href="#w2vfh"/></g><g><use fill="#1a9f29" xlink:href="#w2vfi"/></g><g><use fill="#1a9f29" xlink:href="#w2vfj"/></g><g><use fill="#1a9f29" xlink:href="#w2vfk"/></g><g><use fill="#1a9f29" xlink:href="#w2vfl"/></g><g><use fill="#1a9f29" xlink:href="#w2vfm"/></g><g><use fill="#1a9f29" xlink:href="#w2vfn"/></g><g><use fill="#1a9f29" xlink:href="#w2vfo"/></g><g><use fill="#1a9f29" xlink:href="#w2vfp"/></g><g><use fill="#1a9f29" xlink:href="#w2vfq"/></g><g><use fill="#1a9f29" xlink:href="#w2vfr"/></g><g><use fill="#1a9f29" xlink:href="#w2vfs"/></g><g><use fill="#1a9f29" xlink:href="#w2vft"/></g><g><use fill="#1a9f29" xlink:href="#w2vfu"/></g><g><use fill="#1a9f29" xlink:href="#w2vfv"/></g><g><use fill="#1a9f29" xlink:href="#w2vfw"/></g><g><use fill="#1a9f29" xlink:href="#w2vfx"/></g><g><use fill="#1a9f29" xlink:href="#w2vfy"/></g></g></g></svg>