<svg xmlns="http://www.w3.org/2000/svg" xmlns:xlink="http://www.w3.org/1999/xlink" width="101" height="36" viewBox="0 0 101 36"><defs><path id="774aa" d="M424.03 1484.11H400l1.73-4.7h24.03zm2.6-7.06H402.6l1.73-4.71h24.03zm2.6-7.07H405.2l1.73-4.71h24.03z"/><path id="774ab" d="M450.62 1485.53v.1c1.09.4 2.13 1.08 2.67 1.52 1.68 1.37 2.42 3.18 2.42 5.52 0 3.87-2.07 6.65-5.48 7.53-1.04.3-2.13.4-4.16.4h-10.33v-28.27h9.15c1.88 0 3.16.1 4.3.4 3.31.87 5.49 3.12 5.49 6.7 0 1.9-.7 3.51-1.83 4.59a6.94 6.94 0 0 1-2.23 1.51zm-9.14 3v7.42h3.95c1.18 0 2.27-.1 3.06-.83a3.67 3.67 0 0 0 1.13-2.89 4 4 0 0 0-.74-2.44c-.84-1.02-1.87-1.27-3.65-1.27zm3.16-4.91c.98 0 1.48 0 1.97-.15 1.33-.39 2.17-1.56 2.17-3.17 0-1.9-.89-2.74-2.17-3.13a7.92 7.92 0 0 0-2.17-.2h-3.01v6.65zm19.68 16.97v-23.52h-8.26v-4.74H479l-1.63 4.74h-7.32v23.52zm16.46-28.26h18.6l-1.63 4.74h-11.28v6.26h4.6c3.71 0 5.64.88 6.98 2 1.03.89 2.82 2.84 2.82 6.7 0 3.82-1.84 5.92-3.37 7-1.78 1.22-3.66 1.56-7.47 1.56h-9.25zm9.99 23.52c1.63 0 2.62-.4 3.31-1.27.35-.44.84-1.22.84-2.69 0-1.46-.5-2.49-1.48-3.22-.6-.44-1.39-.69-2.72-.69h-4.25v7.87z"/></defs><g><g transform="translate(-400 -1465)"><g><use fill="#009fdf" xlink:href="#774aa"/></g><g><use fill="#0a2973" xlink:href="#774ab"/></g></g></g></svg>